<svg width="50" height="50" viewBox="0 0 50 50" fill="none" xmlns="http://www.w3.org/2000/svg">
<path d="M19.6285 44.977C17.4301 44.5013 14.9507 43.5065 12.7618 41.7408C9.44445 39.0645 6.75 34.5822 6.75 27.3151C6.75 21.7168 9.68547 17.9589 12.5115 15.803L12.2083 15.4055L12.5115 15.803C13.1573 15.3104 13.8657 15.314 14.447 15.6314C15.0415 15.956 15.5192 16.6223 15.6071 17.4803L16.1045 17.4293L19.6285 44.977ZM19.6285 44.977C19.3784 44.823 19.1335 44.6534 18.8967 44.4671C17.3385 43.2405 16.1667 41.3101 16.1667 38.4255C16.1667 33.8937 19.4668 30.8731 21.8927 29.4339L19.6285 44.977ZM26.7342 45.4195C27.4045 45.2851 28.0951 45.1149 28.7946 44.9045C29.1305 44.6613 29.4548 44.3811 29.758 44.0597C29.3601 44.2034 28.9629 44.3333 28.5685 44.4502C27.9808 44.8873 27.3499 45.2019 26.7342 45.4195ZM28.2085 33.2732L28.4609 32.8416C28.4609 32.8415 28.4609 32.8415 28.4608 32.8415L28.2085 33.2732ZM24.0294 30.7165C24.0294 29.6514 22.9148 28.8273 21.8928 29.4338L25.1365 35.0311C24.3674 34.137 24.0294 32.7938 24.0294 31.944V30.7165Z" fill="#1F1F1F" stroke="#1D1D1D"/>
<mask id="mask0_178_105" style="mask-type:alpha" maskUnits="userSpaceOnUse" x="6" y="5" width="36" height="41">
<path d="M26.7342 45.4195C33.2465 44.114 41.6667 39.4293 41.6667 27.3151C41.6667 16.2909 33.5973 8.94994 27.7948 5.57685C26.5073 4.82835 25 5.81271 25 7.302V11.1113C25 14.1152 23.7371 19.5982 20.2277 21.8788C18.4361 23.0432 16.5011 21.3005 16.2833 19.1748L16.1045 17.4293C15.8967 15.4001 13.83 14.1683 12.2083 15.4055C9.29473 17.6281 6.25 21.5201 6.25 27.3151C6.25 42.1299 17.2685 45.8336 22.7777 45.8336C23.0981 45.8336 23.435 45.824 23.7856 45.8038C21.0652 45.5713 16.6667 43.8834 16.6667 38.4255C16.6667 34.1561 19.7814 31.2678 22.1479 29.8638C22.7844 29.4861 23.5294 29.9765 23.5294 30.7165V31.944C23.5294 32.8834 23.8927 34.352 24.7575 35.3572C25.7362 36.4947 27.1727 35.303 27.2885 33.807C27.3252 33.3351 27.7998 33.0343 28.2085 33.2732C29.5446 34.054 31.25 35.722 31.25 38.4255C31.25 42.6922 28.8979 44.6549 26.7342 45.4195Z" fill="#2B2B2B"/>
</mask>
<g mask="url(#mask0_178_105)">
<g filter="url(#filter0_f_178_105)">
<ellipse cx="35" cy="1.5" rx="26" ry="21.5" fill="#F33918"/>
</g>
<g filter="url(#filter1_f_178_105)">
<circle cx="43.5" cy="64.5" r="21.5" fill="#F7816C"/>
</g>
</g>
<defs>
<filter id="filter0_f_178_105" x="-31" y="-60" width="132" height="123" filterUnits="userSpaceOnUse" color-interpolation-filters="sRGB">
<feFlood flood-opacity="0" result="BackgroundImageFix"/>
<feBlend mode="normal" in="SourceGraphic" in2="BackgroundImageFix" result="shape"/>
<feGaussianBlur stdDeviation="20" result="effect1_foregroundBlur_178_105"/>
</filter>
<filter id="filter1_f_178_105" x="-18" y="3" width="123" height="123" filterUnits="userSpaceOnUse" color-interpolation-filters="sRGB">
<feFlood flood-opacity="0" result="BackgroundImageFix"/>
<feBlend mode="normal" in="SourceGraphic" in2="BackgroundImageFix" result="shape"/>
<feGaussianBlur stdDeviation="20" result="effect1_foregroundBlur_178_105"/>
</filter>
</defs>
</svg>
